<svg width="502" height="502" viewBox="0 0 502 502" fill="none" xmlns="http://www.w3.org/2000/svg">
<g clip-path="url(#clip0_185_130)">
<path d="M42.3197 241.871L41.6507 255.362L54.8366 258.186L54.3227 273.21L-6.72846 257.997L-5.58843 237.673L54.4757 224.966L54.0576 239.631L42.3197 241.871ZM29.3661 252.462L29.5847 244.544L8.55462 248.074L29.3661 252.462Z" fill="#EEE6E7" fill-opacity="0.5"/>
<path d="M4.06747 180.084L35.6528 176.228L7.07586 166.595L11.8795 151.596L67.3259 170.89L62.9437 183.947L29.1508 188.525L60.9537 198.698L56.7312 212.748L-1.0377 195.743L4.06747 180.084Z" fill="#EEE6E7" fill-opacity="0.5"/>
<path d="M78.3328 158.53L25.2285 126.505L33.4433 113.274L85.127 147.177L78.3328 158.53Z" fill="#EEE6E7" fill-opacity="0.5"/>
<path d="M98.1326 105.396L78.1233 98.8582L101.254 122.058L91.0494 132.345L48.8698 88.2205L60.0258 77.1023L85.9032 86.9263L76.5097 61.5079L86.651 51.2848L130.791 92.2828L120.586 102.57L98.5431 80.8297L104.344 99.1348L98.1326 105.396Z" fill="#EEE6E7" fill-opacity="0.5"/>
<path d="M161.859 61.995L149.642 67.757L153.359 80.7196L139.863 87.3403L124.538 26.3173L143.005 17.7532L182.496 64.7593L169.362 71.2956L161.859 61.995ZM146.416 55.5541L153.504 52.0189L140.488 35.1277L146.416 55.5541Z" fill="#EEE6E7" fill-opacity="0.5"/>
<path d="M231.091 53.9846L193.86 61.4907L181.821 2.31264L197.458 -0.733315L205.779 45.3359L228.768 40.9553L231.091 53.9846Z" fill="#EEE6E7" fill-opacity="0.5"/>
<path d="M271.099 52.5109L282.973 -5.13921L287.646 -4.18414C290.115 -3.67958 292.748 -3.08019 295.546 -2.38598C298.356 -1.75056 301.076 -0.98018 303.708 -0.0748521C306.411 0.783701 308.925 1.81797 311.25 3.02795C313.634 4.24995 315.64 5.6704 317.269 7.28932C318.956 8.92024 320.16 10.8198 320.881 12.9879C321.613 15.0973 321.703 17.5041 321.151 20.2082C320.382 23.9704 318.933 27.012 316.806 29.333C314.737 31.666 311.913 33.0485 308.334 33.4807C310.443 35.4429 311.8 37.496 312.403 39.6401C313.006 41.7843 313.025 44.0848 312.462 46.5418C311.791 49.5278 310.545 51.876 308.726 53.5864C306.965 55.3087 304.848 56.5295 302.374 57.2487C299.912 57.9091 297.222 58.1862 294.304 58.0798C291.386 57.9734 288.428 57.6139 285.43 57.0012C282.844 56.4726 280.37 55.8445 278.007 55.1168C275.704 54.4011 273.401 53.5325 271.099 52.5109ZM291.857 22.8566C295.561 23.6134 298.614 23.6556 301.017 22.9832C303.421 22.3108 304.85 20.8577 305.307 18.6238C305.523 17.5657 305.38 16.6179 304.878 15.7803C304.375 14.9427 303.607 14.2041 302.575 13.5643C301.601 12.9366 300.361 12.4078 298.857 11.9778C297.423 11.5011 295.884 11.0946 294.238 10.7582L291.857 22.8566ZM287.019 44.2818C288.371 44.5581 289.712 44.7402 291.041 44.8282C292.371 44.9161 293.571 44.8858 294.642 44.7374C295.773 44.6009 296.686 44.3282 297.382 43.9193C298.136 43.5223 298.592 42.9418 298.748 42.1776C298.94 41.237 298.803 40.4127 298.335 39.7048C297.879 38.938 297.188 38.2761 296.26 37.7192C295.404 37.1155 294.312 36.6167 292.984 36.2228C291.726 35.7822 290.363 35.4117 288.893 35.1113L287.019 44.2818Z" fill="#EEE6E7" fill-opacity="0.5"/>
<path d="M354.133 69.7721L342.465 63.0311L333.95 73.4468L320.851 66.1451L362.17 18.8933L379.689 29.1659L363.598 88.2635L350.773 81.2102L354.133 69.7721ZM350.636 53.4497L357.563 57.2513L364.014 36.9788L350.636 53.4497Z" fill="#EEE6E7" fill-opacity="0.5"/>
<path d="M439.841 74.6449L439.93 88.7103L407.906 88.3927L411.266 119.706L396.196 120.452L393.67 92.6861L381.185 105.028L371.708 95.7965L415.191 51.4568L426.168 62.5048L413.302 74.8548L439.841 74.6449Z" fill="#EEE6E7" fill-opacity="0.5"/>
<path d="M462.862 104.625L482.555 136.892L471.244 143.229L459.397 124.097L446.03 132.081L456.659 150.578L445.966 156.546L434.811 138.573L429.388 141.603L441.51 162.248L430.46 168.847L410.029 135.344L462.862 104.625Z" fill="#EEE6E7" fill-opacity="0.5"/>
<path d="M435.115 178.625L492.924 161.789C494.428 167.038 495.601 172.007 496.444 176.696C497.304 181.443 497.521 185.687 497.095 189.429C496.743 193.212 495.628 196.402 493.751 199C491.89 201.655 489.027 203.535 485.162 204.642C484.008 204.972 482.764 205.204 481.429 205.337C480.152 205.453 478.775 205.441 477.3 205.302C475.882 205.146 474.407 204.789 472.873 204.229C471.414 203.711 469.976 202.937 468.558 201.908L454.128 218.21L442.761 208.265L459.86 190.824C459.563 190.222 459.295 189.613 459.055 188.995C458.816 188.377 458.568 187.73 458.313 187.054C457.085 187.343 455.597 187.707 453.85 188.145C452.12 188.64 450.323 189.124 448.461 189.594C446.673 190.106 444.906 190.581 443.159 191.019C441.486 191.498 440.064 191.874 438.894 192.147L435.115 178.625ZM470.623 183.622C471.144 185.221 471.791 186.502 472.567 187.466C473.342 188.43 474.167 189.13 475.04 189.566C475.931 190.06 476.842 190.298 477.773 190.281C478.721 190.322 479.598 190.227 480.406 189.995C482.079 189.516 483.376 188.49 484.298 186.915C485.295 185.381 485.474 182.958 484.838 179.645L470.623 183.622Z" fill="#EEE6E7" fill-opacity="0.5"/>
<path d="M504.414 270.913L477.212 254.745L448.036 254.094L447.89 240.865L474.876 239.844L503.714 221.508L510.866 233.893L490.122 246.774L510.937 258.105L504.414 270.913Z" fill="#EEE6E7" fill-opacity="0.5"/>
<path d="M443.998 336.455L465.041 335.87L435.446 321.82L441.588 308.696L496.168 336.029L489.41 350.256L461.736 349.725L479.144 370.492L473.041 383.535L417.668 359.806L423.81 346.682L451.889 359.724L440.26 344.444L443.998 336.455Z" fill="#EEE6E7" fill-opacity="0.5"/>
<path d="M407.216 368.96L454.747 408.79L444.591 420.597L398.753 379.129L407.216 368.96Z" fill="#EEE6E7" fill-opacity="0.5"/>
<path d="M412.832 450.365L384.721 435.456L402.647 459.706L390.125 469.26L355.69 421.713L366.754 413.511L397.089 429.091L376.826 402.551L388.328 393.444L425.978 440.443L412.832 450.365Z" fill="#EEE6E7" fill-opacity="0.5"/>
<path d="M339.728 425.76L365.199 482.453L350.879 488.665L327.651 431.234L339.728 425.76Z" fill="#EEE6E7" fill-opacity="0.5"/>
<path d="M291.484 505.27L253.872 509.047L253.058 496.108L275.433 493.714L274.025 478.208L252.75 479.779L252.001 467.557L273.032 465.285L271.583 446.348L285.859 445.323L291.484 505.27Z" fill="#EEE6E7" fill-opacity="0.5"/>
<path d="M237.466 446.29L230.164 507.872L214.723 505.838L224.322 444.776L237.466 446.29Z" fill="#EEE6E7" fill-opacity="0.5"/>
<path d="M168.958 431.479C170.814 431.983 172.462 432.447 173.902 432.873C175.285 433.279 176.544 433.675 177.68 434.061C188.816 437.843 196.063 442.903 199.424 449.241C202.708 455.615 202.626 463.413 199.177 472.634C197.425 477.235 195.145 481.055 192.339 484.093C189.513 487.189 186.331 489.467 182.794 490.927C179.18 492.424 175.324 493.142 171.226 493.081C167.052 493.058 162.75 492.293 158.318 490.788C157.239 490.421 156.207 490.008 155.223 489.547C154.163 489.123 153.084 488.662 151.986 488.162L156.277 474.411C159.419 475.606 162.479 476.391 165.456 476.769C168.357 477.184 171.032 477.142 173.483 476.644C175.933 476.145 178.073 475.161 179.903 473.692C181.714 472.279 183.082 470.304 184.007 467.767C184.97 465.116 185.439 462.804 185.412 460.83C185.366 458.913 184.977 457.26 184.245 455.871C183.437 454.519 182.39 453.404 181.105 452.523C179.763 451.624 178.278 450.866 176.649 450.25L174.911 455.648L179.936 457.924L176.113 469.458L153.075 461.728L157.301 449.286L162.017 450.793L168.958 431.479Z" fill="#EEE6E7" fill-opacity="0.5"/>
<path d="M84.2976 446.937C84.7362 446.222 85.401 445.191 86.292 443.844C87.1482 442.545 88.1262 441.077 89.226 439.438C90.3258 437.799 91.4952 436.064 92.7342 434.231C93.8898 432.411 95.0523 430.634 96.2217 428.898C97.3563 427.211 98.4282 425.663 99.4374 424.253C100.398 422.809 101.191 421.65 101.818 420.775C104.219 417.421 106.648 414.492 109.103 411.986C111.524 409.529 114.122 407.75 116.896 406.648C119.635 405.595 122.619 405.38 125.85 406.002C129.08 406.624 132.664 408.345 136.6 411.164C140.294 413.808 142.938 416.584 144.533 419.49C146.044 422.411 146.756 425.42 146.669 428.519C146.534 431.583 145.759 434.668 144.345 437.772C142.896 440.925 140.992 444.046 138.632 447.136C137.331 448.851 135.762 450.888 133.924 453.249C132.052 455.658 130.198 458.042 128.361 460.403C126.44 462.777 124.666 464.998 123.037 467.067C121.325 469.15 119.968 470.788 118.966 471.982L106.918 462.473C108.282 460.876 109.959 458.842 111.949 456.371C113.856 453.913 115.832 451.358 117.878 448.706C119.89 446.103 121.814 443.621 123.651 441.261C125.44 438.865 126.821 436.987 127.795 435.627C130.266 432.176 131.489 429.339 131.464 427.115C131.355 424.905 130.523 423.244 128.968 422.13C128.045 421.469 127.072 421.03 126.051 420.813C124.981 420.562 123.901 420.634 122.809 421.029C121.683 421.472 120.522 422.221 119.326 423.276C118.046 424.344 116.71 425.851 115.318 427.795C112.151 432.217 109.033 436.675 105.963 441.167C102.894 445.659 99.6606 450.328 96.264 455.175L84.2976 446.937Z" fill="#EEE6E7" fill-opacity="0.5"/>
<path d="M108.609 387.802L61.8123 425.342C58.4271 421.084 55.4523 416.957 52.8879 412.962C50.2863 408.92 48.4683 405.096 47.4339 401.489C46.3155 397.872 46.1253 394.51 46.8633 391.403C47.5641 388.25 49.4823 385.427 52.6179 382.934C53.5539 382.19 54.6111 381.503 55.7895 380.872C56.9211 380.278 58.1925 379.763 59.6037 379.329C60.9681 378.932 62.4627 378.698 64.0875 378.629C65.6283 378.55 67.2477 378.713 68.9457 379.12L76.0125 358.611L90.2685 363.431L81.1785 386.007C81.6813 386.447 82.1607 386.906 82.6167 387.384C83.0727 387.862 83.5473 388.363 84.0405 388.887C85.0605 388.153 86.2911 387.251 87.7323 386.182C89.1363 385.066 90.6057 383.936 92.1405 382.792C93.5913 381.639 95.0373 380.528 96.4785 379.459C97.8357 378.38 99.0009 377.492 99.9741 376.795L108.609 387.802ZM74.0163 396.74C72.9279 395.467 71.8431 394.535 70.7619 393.943C69.6807 393.352 68.6547 393.022 67.6839 392.953C66.6759 392.838 65.7465 392.966 64.8957 393.337C64.0077 393.661 63.2361 394.083 62.5809 394.604C61.2237 395.683 60.4209 397.123 60.1725 398.924C59.8401 400.715 60.5985 403.015 62.4477 405.821L74.0163 396.74Z" fill="#EEE6E7" fill-opacity="0.5"/>
<path d="M22.4047 369.624L6.91753 335.14L18.9343 330.273L28.2864 350.741L42.5498 344.497L34.3265 324.813L45.6837 320.235L54.4944 339.465L60.2554 337.14L50.8207 315.137L62.6107 309.976L78.6752 345.779L22.4047 369.624Z" fill="#EEE6E7" fill-opacity="0.5"/>
</g>
<defs>
<clipPath id="clip0_185_130">
<rect width="501.94" height="501.93" fill="white"/>
</clipPath>
</defs>
</svg>
