<svg width="20" height="15" viewBox="0 0 20 15" fill="none" xmlns="http://www.w3.org/2000/svg">
<path d="M11.8305 2.29499C11.72 2.19199 11.6313 2.06779 11.5698 1.92979C11.5083 1.79179 11.4753 1.64282 11.4726 1.49177C11.4699 1.34072 11.4977 1.19067 11.5543 1.05059C11.6109 0.910507 11.6951 0.783257 11.8019 0.676428C11.9088 0.5696 12.036 0.485383 12.1761 0.428802C12.3162 0.37222 12.4662 0.344434 12.6173 0.347099C12.7683 0.349764 12.9173 0.382826 13.0553 0.444314C13.1933 0.505802 13.3175 0.594456 13.4205 0.704986L19.4205 6.70499C19.6312 6.91592 19.7495 7.20186 19.7495 7.49999C19.7495 7.79811 19.6312 8.08405 19.4205 8.29499L13.4205 14.295C13.3175 14.4055 13.1933 14.4942 13.0553 14.5557C12.9173 14.6171 12.7683 14.6502 12.6173 14.6529C12.4662 14.6555 12.3162 14.6278 12.1761 14.5712C12.036 14.5146 11.9088 14.4304 11.8019 14.3235C11.6951 14.2167 11.6109 14.0895 11.5543 13.9494C11.4977 13.8093 11.4699 13.6593 11.4726 13.5082C11.4753 13.3571 11.5083 13.2082 11.5698 13.0702C11.6313 12.9322 11.72 12.808 11.8305 12.705L15.9105 8.62499L1.3755 8.62499C1.07713 8.62499 0.790983 8.50646 0.580006 8.29548C0.369028 8.0845 0.250502 7.79835 0.250502 7.49999C0.250502 7.20162 0.369028 6.91547 0.580006 6.70449C0.790983 6.49351 1.07713 6.37499 1.3755 6.37499L15.9105 6.37499L11.8305 2.29499Z" fill="black"/>
</svg>
