<svg width="37" height="36" viewBox="0 0 37 36" fill="none" xmlns="http://www.w3.org/2000/svg">
<path d="M18.5 4.5C27.2 4.5 34.2515 9.996 34.2515 16.7775C34.2515 23.5575 27.2 29.0535 18.5015 29.0535C17.6353 29.0539 16.7701 28.9988 15.911 28.8885L9.29897 33.213C8.54747 33.6105 8.28197 33.567 8.59097 32.5935L9.92896 27.0765C5.60896 24.8865 2.75146 21.0915 2.75146 16.7775C2.75146 9.9975 9.80146 4.5 18.5015 4.5M27.3635 16.59L29.5685 14.454C29.6957 14.3219 29.7667 14.1455 29.7665 13.9621C29.7662 13.7786 29.6948 13.6024 29.5673 13.4706C29.4397 13.3388 29.266 13.2616 29.0827 13.2553C28.8993 13.2491 28.7207 13.3142 28.5845 13.437L25.6925 16.236V13.923C25.6925 13.7352 25.6179 13.5551 25.4851 13.4224C25.3523 13.2896 25.1722 13.215 24.9845 13.215C24.7967 13.215 24.6166 13.2896 24.4838 13.4224C24.3511 13.5551 24.2765 13.7352 24.2765 13.923V17.7585C24.25 17.8679 24.25 17.9821 24.2765 18.0915V20.25C24.2765 20.4378 24.3511 20.6179 24.4838 20.7506C24.6166 20.8834 24.7967 20.958 24.9845 20.958C25.1722 20.958 25.3523 20.8834 25.4851 20.7506C25.6179 20.6179 25.6925 20.4378 25.6925 20.25V18.2055L26.333 17.586L28.475 20.6355C28.5284 20.7116 28.5964 20.7765 28.6749 20.8264C28.7535 20.8762 28.8411 20.9101 28.9327 20.9262C29.0244 20.9422 29.1183 20.94 29.2091 20.9197C29.2999 20.8994 29.3858 20.8615 29.462 20.808C29.5381 20.7545 29.603 20.6866 29.6528 20.608C29.7027 20.5295 29.7366 20.4419 29.7526 20.3502C29.7686 20.2586 29.7665 20.1647 29.7462 20.0739C29.7259 19.9831 29.6879 19.8971 29.6345 19.821L27.3635 16.59ZM22.9265 19.476H20.7365V13.9455C20.7281 13.7636 20.6499 13.5918 20.5182 13.4661C20.3865 13.3403 20.2113 13.2701 20.0292 13.2701C19.8471 13.2701 19.672 13.3403 19.5402 13.4661C19.4085 13.5918 19.3303 13.7636 19.322 13.9455V20.184C19.322 20.574 19.637 20.892 20.0285 20.892H22.9265C23.1142 20.892 23.2943 20.8174 23.4271 20.6846C23.5599 20.5519 23.6345 20.3718 23.6345 20.184C23.6345 19.9962 23.5599 19.8161 23.4271 19.6834C23.2943 19.5506 23.1142 19.476 22.9265 19.476ZM14.141 17.8395L15.185 15.2775L16.142 17.838L14.141 17.8395ZM17.9255 18.57L17.9285 18.546C17.9281 18.3676 17.86 18.1961 17.738 18.066L16.169 13.866C16.1032 13.6659 15.9779 13.4905 15.8098 13.3635C15.6418 13.2364 15.439 13.1637 15.2285 13.155C15.0164 13.1541 14.8091 13.2177 14.6342 13.3375C14.4592 13.4573 14.3248 13.6275 14.249 13.8255L11.756 19.938C11.685 20.1118 11.6859 20.3068 11.7586 20.4799C11.8313 20.6531 11.9699 20.7902 12.1437 20.8613C12.3176 20.9323 12.5125 20.9313 12.6856 20.8586C12.8588 20.7859 12.996 20.6473 13.067 20.4735L13.565 19.254H16.67L17.117 20.454C17.1475 20.5437 17.1956 20.6264 17.2587 20.6971C17.3217 20.7678 17.3983 20.8252 17.4839 20.8658C17.5695 20.9064 17.6623 20.9294 17.757 20.9335C17.8516 20.9375 17.9461 20.9225 18.0349 20.8894C18.1237 20.8563 18.2049 20.8057 18.2737 20.7406C18.3425 20.6755 18.3976 20.5973 18.4357 20.5105C18.4737 20.4237 18.494 20.3302 18.4952 20.2355C18.4965 20.1408 18.4787 20.0467 18.443 19.959L17.9255 18.57ZM12.941 13.953C12.941 13.7655 12.8666 13.5856 12.7341 13.4529C12.6017 13.3202 12.422 13.2454 12.2345 13.245H7.36697C7.17919 13.245 6.99911 13.3196 6.86633 13.4524C6.73356 13.5851 6.65896 13.7652 6.65896 13.953C6.65896 14.1408 6.73356 14.3209 6.86633 14.4536C6.99911 14.5864 7.17919 14.661 7.36697 14.661H9.10696V20.265C9.10696 20.4528 9.18156 20.6329 9.31433 20.7656C9.44711 20.8984 9.62719 20.973 9.81497 20.973C10.0027 20.973 10.1828 20.8984 10.3156 20.7656C10.4484 20.6329 10.523 20.4528 10.523 20.265V14.661H12.233C12.4207 14.661 12.6008 14.5864 12.7336 14.4536C12.8664 14.3209 12.941 14.1408 12.941 13.953Z" fill="black"/>
</svg>
