<svg width="36" height="36" viewBox="0 0 36 36" fill="none" xmlns="http://www.w3.org/2000/svg">
<path d="M4.5 16.5C4.5 10.8435 4.5 8.0145 6.258 6.258C8.0145 4.5 10.8435 4.5 16.5 4.5H19.5C25.1565 4.5 27.9855 4.5 29.742 6.258C31.5 8.0145 31.5 10.8435 31.5 16.5V19.5C31.5 25.1565 31.5 27.9855 29.742 29.742C27.9855 31.5 25.1565 31.5 19.5 31.5H16.5C10.8435 31.5 8.0145 31.5 6.258 29.742C4.5 27.9855 4.5 25.1565 4.5 19.5V16.5Z" stroke="black" stroke-width="2"/>
<path d="M24.75 13.5C25.9926 13.5 27 12.4926 27 11.25C27 10.0074 25.9926 9 24.75 9C23.5074 9 22.5 10.0074 22.5 11.25C22.5 12.4926 23.5074 13.5 24.75 13.5Z" fill="black"/>
<path d="M18 22.5C20.4853 22.5 22.5 20.4853 22.5 18C22.5 15.5147 20.4853 13.5 18 13.5C15.5147 13.5 13.5 15.5147 13.5 18C13.5 20.4853 15.5147 22.5 18 22.5Z" stroke="black" stroke-width="2"/>
</svg>
