<svg width="37" height="36" viewBox="0 0 37 36" fill="none" xmlns="http://www.w3.org/2000/svg">
<path d="M23.8187 25.0858H5.61576C5.00815 25.0858 4.47774 24.5867 4.47774 23.9159C4.47774 23.245 5.00815 22.7459 5.61576 22.7459H23.5539C24.443 22.7459 24.9887 22.1216 25.1291 21.1706L25.3787 19.5328H5.58515C3.30778 19.5328 2.13782 18.1286 1.81039 15.8985L0.56256 7.64684C0.529445 7.45089 0.508551 7.25308 0.500001 7.05454C0.500001 6.30584 1.06169 5.79073 1.91953 5.79073H27.3905L27.6873 3.81018C27.8431 2.60894 28.2796 2 29.8702 2H35.346C35.9696 2 36.5 2.54705 36.5 3.17129C36.5 3.81018 35.9696 4.35656 35.3453 4.35656H30.0739L27.5782 21.4828C27.2501 23.6976 26.0808 25.0858 23.8187 25.0858ZM3.15205 8.14597L4.25813 15.6176C4.38324 16.5846 4.89768 17.1776 5.81808 17.1776L25.7208 17.1929L27.0471 8.14597H3.15205ZM22.5862 32.6666C22.2536 32.6694 21.9238 32.6059 21.616 32.4799C21.3081 32.3539 21.0285 32.1678 20.7933 31.9326C20.5581 31.6974 20.3721 31.4178 20.246 31.1099C20.12 30.8021 20.0565 30.4723 20.0593 30.1397C20.0579 29.8074 20.1223 29.4782 20.2488 29.171C20.3753 28.8638 20.5613 28.5847 20.7963 28.3497C21.0312 28.1148 21.3103 27.9287 21.6175 27.8022C21.9248 27.6757 22.254 27.6113 22.5862 27.6127C24.0051 27.6127 25.1285 28.7361 25.1285 30.1397C25.1285 31.5592 24.0051 32.6666 22.5862 32.6666ZM8.00228 32.6666C6.58275 32.6666 5.46003 31.5592 5.46003 30.1397C5.46003 28.7355 6.58275 27.6127 8.00228 27.6127C9.40583 27.6127 10.5445 28.7361 10.5445 30.1397C10.5445 31.5592 9.40583 32.6666 8.00228 32.6666Z" fill="black"/>
</svg>
