<svg width="13" height="17" viewBox="0 0 13 17" fill="none" xmlns="http://www.w3.org/2000/svg">
<path d="M12.1875 4.5H9.75V3.7C9.75 2.85131 9.40759 2.03737 8.7981 1.43726C8.1886 0.837142 7.36195 0.5 6.5 0.5C5.63805 0.5 4.8114 0.837142 4.2019 1.43726C3.59241 2.03737 3.25 2.85131 3.25 3.7V4.5H0.8125C0.597012 4.5 0.390349 4.58429 0.237976 4.73431C0.0856026 4.88434 0 5.08783 0 5.3V14.1C0 14.7365 0.256807 15.347 0.713927 15.7971C1.17105 16.2471 1.79103 16.5 2.4375 16.5H10.5625C11.209 16.5 11.829 16.2471 12.2861 15.7971C12.7432 15.347 13 14.7365 13 14.1V5.3C13 5.08783 12.9144 4.88434 12.762 4.73431C12.6097 4.58429 12.403 4.5 12.1875 4.5ZM4.875 3.7C4.875 3.27565 5.04621 2.86869 5.35095 2.56863C5.6557 2.26857 6.06902 2.1 6.5 2.1C6.93098 2.1 7.3443 2.26857 7.64905 2.56863C7.95379 2.86869 8.125 3.27565 8.125 3.7V4.5H4.875V3.7ZM11.375 14.1C11.375 14.3122 11.2894 14.5157 11.137 14.6657C10.9847 14.8157 10.778 14.9 10.5625 14.9H2.4375C2.22201 14.9 2.01535 14.8157 1.86298 14.6657C1.7106 14.5157 1.625 14.3122 1.625 14.1V6.1H3.25V6.9C3.25 7.11217 3.3356 7.31566 3.48798 7.46569C3.64035 7.61571 3.84701 7.7 4.0625 7.7C4.27799 7.7 4.48465 7.61571 4.63702 7.46569C4.7894 7.31566 4.875 7.11217 4.875 6.9V6.1H8.125V6.9C8.125 7.11217 8.2106 7.31566 8.36298 7.46569C8.51535 7.61571 8.72201 7.7 8.9375 7.7C9.15299 7.7 9.35965 7.61571 9.51202 7.46569C9.6644 7.31566 9.75 7.11217 9.75 6.9V6.1H11.375V14.1Z" fill="black"/>
</svg>
